<svg id="Camada_1" data-name="Camada 1" xmlns="http://www.w3.org/2000/svg" xmlns:xlink="http://www.w3.org/1999/xlink" viewBox="0 0 88.43 61.86"><defs><style>.cls-1,.cls-2{fill:#fff;}.cls-10,.cls-2,.cls-3,.cls-4,.cls-5,.cls-6,.cls-7,.cls-8,.cls-9{fill-rule:evenodd;}.cls-3{fill:#0e0e0e;opacity:0.4;}.cls-4{fill:url(#linear-gradient);}.cls-5{fill:url(#linear-gradient-2);}.cls-6{fill:url(#linear-gradient-3);}.cls-7{fill:url(#linear-gradient-4);}.cls-8{fill:url(#linear-gradient-5);}.cls-9{fill:url(#linear-gradient-6);}.cls-10{fill:url(#linear-gradient-7);}</style><linearGradient id="linear-gradient" x1="34.45" y1="11.02" x2="34.45" y2="18.45" gradientUnits="userSpaceOnUse"><stop offset="0" stop-color="#b2b2b2"/><stop offset="1" stop-color="#b2b2b2" stop-opacity="0"/></linearGradient><linearGradient id="linear-gradient-2" x1="37.34" y1="13.45" x2="44.09" y2="18.6" gradientUnits="userSpaceOnUse"><stop offset="0" stop-color="#0e0e0e"/><stop offset="1" stop-color="#0e0e0e" stop-opacity="0"/></linearGradient><linearGradient id="linear-gradient-3" x1="46.24" y1="31.8" x2="48.66" y2="26.12" xlink:href="#linear-gradient-2"/><linearGradient id="linear-gradient-4" x1="27" y1="25.5" x2="38.01" y2="25.5" xlink:href="#linear-gradient"/><linearGradient id="linear-gradient-5" x1="43.59" y1="12.01" x2="51.07" y2="19.49" xlink:href="#linear-gradient"/><linearGradient id="linear-gradient-6" x1="56.23" y1="30.81" x2="61.91" y2="24.56" xlink:href="#linear-gradient-2"/><linearGradient id="linear-gradient-7" x1="78.35" y1="6.64" x2="70.63" y2="14.36" xlink:href="#linear-gradient"/></defs><path class="cls-1" d="M60.56,53.3v-.65h-3v.65h1v2.91h.9V53.3Zm3.67,2.91v-.65H62.69V54.7h1.43v-.62H62.69V53.3h1.53v-.66H61.79v3.57Zm4.38,0-.8-1.44a1.14,1.14,0,0,0,.3-.21,1,1,0,0,0,.2-.32,1.52,1.52,0,0,0,.07-.45v0a1.49,1.49,0,0,0-.09-.5,1,1,0,0,0-.24-.33,1.08,1.08,0,0,0-.37-.19,2,2,0,0,0-.45-.1,4.12,4.12,0,0,0-.51,0l-.42,0h-.38l-.35,0V56.2h.87V54.93H67l.73,1.27Zm-1.1-2.41a.57.57,0,0,1-.08.31.48.48,0,0,1-.24.16,1.63,1.63,0,0,1-.43.05h-.32v-1h.31l.35,0a.69.69,0,0,1,.23.08.29.29,0,0,1,.14.15.62.62,0,0,1,.05.25Zm5.86,2.4V52.62h-.87l-.7,1.27-.11.21c0,.08-.07.16-.11.23h0c0-.07-.07-.15-.1-.23l-.12-.21-.69-1.26h-.88V56.2h.87v-2c0-.06,0-.12,0-.18s0-.13,0-.2h0l.11.24.12.22.45.83h.52l.46-.83.12-.22a2.56,2.56,0,0,1,.11-.24h0V54a1.28,1.28,0,0,0,0,.19c0,.06,0,.13,0,.2v1.77Zm4.6,0-1-3.56H75.57l-1,3.56h.92l.25-.89h1l.25.9Zm-1.32-1.54h-.76l.25-.94.06-.27c0-.1,0-.19,0-.28h0c0,.09,0,.18,0,.28a2.68,2.68,0,0,0,.07.27Zm5,.53a1.06,1.06,0,0,0-.06-.37.9.9,0,0,0-.16-.29.87.87,0,0,0-.27-.23,1.78,1.78,0,0,0-.39-.2l-.51-.21a.77.77,0,0,1-.24-.11.34.34,0,0,1-.12-.12.24.24,0,0,1,0-.15.27.27,0,0,1,.06-.19.39.39,0,0,1,.19-.1,1.35,1.35,0,0,1,.31,0h.37l.34,0,.33,0v-.57l-.28,0-.36-.05-.45,0a2.75,2.75,0,0,0-.76.1.9.9,0,0,0-.47.32,1,1,0,0,0-.16.57,1.08,1.08,0,0,0,.06.38.85.85,0,0,0,.17.29,1.36,1.36,0,0,0,.25.22l.34.17.52.22a1.37,1.37,0,0,1,.27.13.29.29,0,0,1,.12.13.27.27,0,0,1,0,.16.34.34,0,0,1-.06.22.3.3,0,0,1-.18.13,1.06,1.06,0,0,1-.33,0h-.43l-.35,0-.32,0v.58a1,1,0,0,0,.22,0l.29,0,.33,0h.36a2,2,0,0,0,.74-.12,1,1,0,0,0,.47-.36,1.15,1.15,0,0,0,.16-.61Z"/><path class="cls-1" d="M81.42,44.78h-.31a.28.28,0,0,0-.26.17,6,6,0,0,1-1.69,2.18,3.47,3.47,0,0,1-2.09,1.07c-.73,0-.74-.31-.74-.48a5.87,5.87,0,0,1,.2-1.33,3.86,3.86,0,0,1,.19-.63,1.84,1.84,0,0,0,.85.18A3,3,0,0,0,80,44.3a4.53,4.53,0,0,0,.86-2.38,1.46,1.46,0,0,0-.22-.78,1,1,0,0,0-.93-.56c-1,0-2,.81-3.15,2.48A7.86,7.86,0,0,0,75,46.87a2.71,2.71,0,0,0,.47,1.87,1.92,1.92,0,0,0,1.63.76v-.29h0l0,.29a4.29,4.29,0,0,0,2.73-1.13,6.25,6.25,0,0,0,2-2.87.56.56,0,0,0-.21-.65A.26.26,0,0,0,81.42,44.78Zm-2.26-2.59a1.07,1.07,0,0,1,.47-.34h0a3.16,3.16,0,0,1-.82,1.82c-.53.66-1,1-1.4,1h-.15A18.85,18.85,0,0,1,79.16,42.19Z"/><path class="cls-1" d="M23.17,43.09c.25-.08.53-.34.53-1.09a2.17,2.17,0,0,0-.29-1.06,1.25,1.25,0,0,0-1.14-.75c-1,0-2.18.91-3.65,2.75s-2.16,3.28-2.16,4.46a1.74,1.74,0,0,0,.34,1.06,1.31,1.31,0,0,0,1.1.54,3.6,3.6,0,0,0,2.53-1.58A26.57,26.57,0,0,0,22.16,45c.12-.19.21-.31.27-.4a9.35,9.35,0,0,1,.32,3.29,11.92,11.92,0,0,1-.58,3.59c-.57,1.79-1.45,2.69-2.62,2.69a2,2,0,0,1-1.5-.79,2.66,2.66,0,0,1-.67-1.86.55.55,0,0,0-.57-.6c-.15,0-.66.06-.66.86a3.83,3.83,0,0,0,1.1,2.58,3.32,3.32,0,0,0,2.48,1.22h0c1.25,0,2.33-.79,3.19-2.35a10.93,10.93,0,0,0,1.27-5.49A16.23,16.23,0,0,0,24,45.08,3.74,3.74,0,0,0,23.17,43.09Zm-1-1.58a1.24,1.24,0,0,1,0,.31,1.39,1.39,0,0,0,.24,1.08l0,0c-.25.1-.6.43-1.28,1.31-1.19,1.51-1.67,2.07-1.87,2.28a3.32,3.32,0,0,1-1.52,1.14s0-.07,0-.12a3.67,3.67,0,0,1,.47-1.48,6.41,6.41,0,0,1,.79-1.28l0,0a13.51,13.51,0,0,1,1.41-1.92C21.38,41.82,21.9,41.54,22.19,41.51Z"/><path class="cls-1" d="M16.77,49c0-.51-.31-.69-.6-.69h0a.78.78,0,0,0-.26,0,2.24,2.24,0,0,0-.33.23.25.25,0,0,1-.13.06c-.06,0-.55-.29-1.11-4.11.33,0,.5.11.53.2v0a.79.79,0,0,0-.08.29.71.71,0,0,0,.1.41c.14.23.41.3.76.13a.9.9,0,0,0,.5-.86c0-.63-.35-1.4-2-1.6a33.45,33.45,0,0,0-.51-4.31,3.36,3.36,0,0,0-.39-1A1.39,1.39,0,0,0,12.08,37c-.87,0-1.7.81-2.55,2.47S8.18,42.29,7.78,43.2c-.2.42-.36.78-.51,1.09l-1.17.39c-.49.18-1.15.48-1.15,1a.7.7,0,0,0,.77.77,1.07,1.07,0,0,0,.56-.15l.17-.11-.22.44C4.65,49.73,4.65,49.9,4.65,50a.9.9,0,0,0,.2.61.72.72,0,0,0,.58.24V50.6h0l0,.28c.43,0,.8-.38,1.09-1.12s.62-1.54.8-2c.45-1,.79-1.86,1-2.41A10.91,10.91,0,0,1,10,44.9a13.19,13.19,0,0,1,2.68-.42h.19c.41,3.61,1.26,5.37,2.6,5.38h0a1.52,1.52,0,0,0,.7-.18C16.57,49.51,16.78,49.26,16.77,49ZM11.88,38.37c.07.07.3.37.54,1.88.15,1.28.24,2.17.29,2.79a21.8,21.8,0,0,0-3.57.66c.5-1.17.92-2.13,1.2-2.73C11.35,38.82,11.76,38.44,11.88,38.37Zm3.58,11.2Z"/><path class="cls-1" d="M41.55,43c.88-.75,1.37-.91,1.62-.91h0a.94.94,0,0,1,.38.15c.32.17.42.21.53.21.3,0,.62-.18.62-.71a1,1,0,0,0-.65-.85,1.84,1.84,0,0,0-.85-.27,4.51,4.51,0,0,0-2.79,1.58c-1.09,1.07-1.61,1.94-1.61,2.68,0,.27.13.64.78.9a3.3,3.3,0,0,0,1,.21l1.89.06a1.25,1.25,0,0,1,.6.19.48.48,0,0,1,.27.44c0,.31-.34.65-1,1a3.9,3.9,0,0,1-1.73.5c-.24,0-.24-.07-.24-.15a.28.28,0,0,1,0-.13,2.53,2.53,0,0,0,.12-.61A.3.3,0,0,0,40.4,47a.64.64,0,0,0-.24,0,.7.7,0,0,0-.44.17.51.51,0,0,0-.42-.19.76.76,0,0,0-.76.62l0,0a.2.2,0,0,1-.13,0c-.11,0-.23-.27-.23-.85a23.13,23.13,0,0,1,.47-3,.8.8,0,0,0-.1-.66,1.3,1.3,0,0,0,.34-1,1.34,1.34,0,0,0-.51-1.23c-.65-.42-1.56-.14-2.79.91a15.51,15.51,0,0,0-2.85,3.36,12.69,12.69,0,0,0-1,2,2.23,2.23,0,0,0-.37.3c-.18.17-.27.18-.3.18s-.67-.2-.67-2.81a7.48,7.48,0,0,1,.16-1.63,8,8,0,0,0,.17-1,.71.71,0,0,0-.77-.77.79.79,0,0,0-.68.39,1.39,1.39,0,0,0-.24.74A6.48,6.48,0,0,1,28.12,45a14.8,14.8,0,0,1-1.55,2.5,3.1,3.1,0,0,1-.83.8,1.5,1.5,0,0,1-.06-.53,16.13,16.13,0,0,1,1.23-4.63l.17-.46a2.49,2.49,0,0,0,.09-.3v0a.67.67,0,0,0-.34-.55,1.09,1.09,0,0,0-.58-.17h0c-.41,0-.77.51-1.36,2.9a16.4,16.4,0,0,0-.56,2.94c0,1.76.66,2.13,1.22,2.13A3.1,3.1,0,0,0,28,47.79c.18-.28.51-.9,1-1.83.27,1.85.94,2.79,2,2.79a1.4,1.4,0,0,0,.41-.08,1.19,1.19,0,0,0,.45,1,1,1,0,0,0,.68.22,4.39,4.39,0,0,0,2.56-1.45,17.46,17.46,0,0,0,1.67-1.79c.08,1.13.45,1.82,1.1,2a1.38,1.38,0,0,0,.56.12,1.4,1.4,0,0,0,.88-.28,1.41,1.41,0,0,0,.56.73,1.8,1.8,0,0,0,1.08.36,4.13,4.13,0,0,0,2.39-.85,2.69,2.69,0,0,0,1.35-2.19c0-1.22-1-1.83-3.07-1.83h-.06c-.81,0-1-.11-1.09-.15C40.43,44.3,40.65,43.79,41.55,43Zm-4.24,0a.82.82,0,0,0-.21.48,2.84,2.84,0,0,1-.59,1.31c0,.06-.28.36-1.37,1.68-1.51,1.85-2.19,2.13-2.46,2.13h0a.22.22,0,0,1,0-.1c0-.44.35-1.45,2.11-3.74A10.8,10.8,0,0,1,37.42,42a2.2,2.2,0,0,1-.13.52.41.41,0,0,0,0,.21A.68.68,0,0,0,37.31,43Z"/><path class="cls-1" d="M53.36,44.09a1.4,1.4,0,0,0-.61.19,1.13,1.13,0,0,0-.43.31c-.38,0-.7.34-1,1.15a5,5,0,0,0-.42,1.94,1.86,1.86,0,0,0,.06.48l-.06-.06a.27.27,0,0,0-.32-.06l-.19.09a2.76,2.76,0,0,1-.1-.93,15.75,15.75,0,0,1,.67-4.47,2.29,2.29,0,0,0,.15-.57.53.53,0,0,0-.2-.41.64.64,0,0,0-.39-.16c-.4,0-.58.51-.73,1.34-.1.54-.18,1-.25,1.36a1.06,1.06,0,0,0-.31,0,2.42,2.42,0,0,0-1.64.94A7.29,7.29,0,0,0,46.35,47a3.74,3.74,0,0,0-.51,1.54.77.77,0,0,0,.83.85h.11c.38,0,1-.23,2.47-2,.06,1.13.42,1.71,1.07,1.71a.83.83,0,0,0,.42-.13.55.55,0,0,0,.31-.48v0a1.09,1.09,0,0,0,.14.23,1.13,1.13,0,0,0,1,.43c.65-.06,1.24-.56,1.74-1.49a3.75,3.75,0,0,0,.62-1.89C54.52,44.37,53.89,44.09,53.36,44.09Zm-4.08,1.33a1.26,1.26,0,0,1-.09.49A6.07,6.07,0,0,1,48,47.3a5.56,5.56,0,0,1-1.22,1,6.14,6.14,0,0,1,1-1.77c.86-1.23,1.27-1.36,1.41-1.36h0s0,0,0,0A.3.3,0,0,1,49.28,45.42Zm2.58,2.16a3.32,3.32,0,0,1,.8-1.95,1.32,1.32,0,0,0,.22-.38.8.8,0,0,1,.49-.23c.07,0,.15.2.15.6a3.64,3.64,0,0,1-.5,1.5c-.36.68-.71,1-1,1C51.93,48.15,51.86,48,51.86,47.58Z"/><path class="cls-1" d="M64.68,37.13a.85.85,0,0,0-.62-.3c-.52,0-1.23.56-2.54,4.62-.62,1.88-1.15,3.81-1.59,5.74a5.29,5.29,0,0,1-.4,1.21,9.85,9.85,0,0,1-.52-2c-.25-1.47-.41-2.4-.49-2.93a29.07,29.07,0,0,0-.83-3.79c-.45-1.38-1-2-1.76-2a2.79,2.79,0,0,0-.91.2,5.25,5.25,0,0,0-1.42,1.06c-.76.72-1.09,1.18-1.09,1.55a.69.69,0,0,0,.76.75c.23,0,.55-.15,1.31-1.24s1-1,1-1,.65.44,1.53,5.14c.31,1.63.55,2.75.69,3.24.49,1.83,1.07,2.67,1.8,2.67h0a1.18,1.18,0,0,0,1.3-.85c.39-1.35.7-2.53,1-3.6a47,47,0,0,1,1.71-5.3,10.65,10.65,0,0,1,1.24-2.43A.55.55,0,0,0,64.68,37.13ZM59.6,49.75Z"/><path class="cls-1" d="M70.21,44.8h-.32a.29.29,0,0,0-.26.18A6.14,6.14,0,0,1,68,47.15a3.56,3.56,0,0,1-2.11,1.07c-.72,0-.72-.31-.72-.48a5.89,5.89,0,0,1,.18-1.32,4.81,4.81,0,0,1,.2-.63,2,2,0,0,0,.86.17,3,3,0,0,0,2.45-1.64,4.59,4.59,0,0,0,.86-2.38,1.62,1.62,0,0,0-.22-.79,1,1,0,0,0-.93-.54c-1,0-2,.81-3.15,2.47a7.93,7.93,0,0,0-1.62,3.82,2.77,2.77,0,0,0,.47,1.86,2,2,0,0,0,1.66.76,4.25,4.25,0,0,0,2.73-1.13,6.38,6.38,0,0,0,2-2.87.58.58,0,0,0-.21-.64A.27.27,0,0,0,70.21,44.8ZM68,42.21a1,1,0,0,1,.46-.33,3.1,3.1,0,0,1-.82,1.81c-.52.67-1,1-1.4,1H66A20,20,0,0,1,68,42.21Z"/><path class="cls-1" d="M75.06,42.06a.51.51,0,0,0,.46.29h0a.6.6,0,0,0,.49-.22.73.73,0,0,0,.12-.64,1.26,1.26,0,0,0-1.37-1.08c-.81,0-1.55.63-2.23,1.89a1.1,1.1,0,0,1,0-.18,1.08,1.08,0,0,0-.11-.59.76.76,0,0,0-.73-.5.79.79,0,0,0-.59.3.77.77,0,0,0-.24.63A29.72,29.72,0,0,1,71.06,45c0,.83,0,1.9-.17,3.28a1.21,1.21,0,0,0,.22.94.67.67,0,0,0,.54.23.91.91,0,0,0,.58-.23.75.75,0,0,0,.28-.58l-.05-1.24c0-.21,0-.34,0-.36a6.7,6.7,0,0,1,.34-2.35A8.81,8.81,0,0,1,74,42.58c.55-.75.85-.89,1-.91v.09A1.75,1.75,0,0,0,75.06,42.06Z"/><path class="cls-1" d="M11,35.69q.53.24.69,0a3.35,3.35,0,0,1,.89-.91,1.49,1.49,0,0,1,.9-.35c.19,0,.32,0,.38-.17s0-.34-.31-.36a3.2,3.2,0,0,0-1.67.4,2.38,2.38,0,0,0-1.13.9C10.6,35.4,10.68,35.57,11,35.69Z"/><path class="cls-1" d="M82.77,39.5c-.06-.14-.17-.2-.37-.2a1.5,1.5,0,0,1-.88-.41,3,3,0,0,1-.7-.76.28.28,0,0,0-.12-.19h0a.34.34,0,0,0-.28-.16c-.26-.1-.44-.08-.55.06a3.27,3.27,0,0,1-.94.84A1.5,1.5,0,0,1,78,39a.36.36,0,0,0-.4.14c-.11.22,0,.35.29.39a3.27,3.27,0,0,0,1.69-.28,5.65,5.65,0,0,0,.6-.29,5.84,5.84,0,0,0,.61.41,3.29,3.29,0,0,0,1.64.51C82.74,39.84,82.85,39.72,82.77,39.5Z"/><path class="cls-2" d="M18.69,33.85Q17,35.64,15.33,37.41c1.88-1,3.73-2.1,5.55-3.27a71.08,71.08,0,0,0,6-4.33A49,49,0,0,0,41.07,11.6a17.58,17.58,0,0,1-6.13.17,73.64,73.64,0,0,1-9.77,14.78c-2.07,2.52-4.26,4.93-6.48,7.3Z"/><path class="cls-2" d="M46.32,11.74h.15a2.89,2.89,0,0,1,1.46.68,22.89,22.89,0,0,1,2.6,2.52A35.74,35.74,0,0,1,59.45,32a17.28,17.28,0,0,0-6.09-.13,56.11,56.11,0,0,0-6.93-15.73c-.4-.65-.87-1.29-1.23-2a1.64,1.64,0,0,1-.14-1.5,1.43,1.43,0,0,1,1.26-1Z"/><path class="cls-2" d="M48.32,22.29A42.36,42.36,0,0,0,41.07,11.6h0a49.28,49.28,0,0,1-2.48,4.79q2.52,3.34,5,7.15a33.48,33.48,0,0,1,3.7,8.38h4.53a44.93,44.93,0,0,0-3.5-9.62Z"/><path class="cls-2" d="M57.31,25.3A41.68,41.68,0,0,1,59.45,32a97,97,0,0,1,7.64-11.13c3.84-4.87,8.08-9.3,12.33-13.8C71.06,11.68,62.91,17.45,57.31,25.3Z"/><path class="cls-3" d="M30.41,26.72c-.51,0-1,.05-1.44.11-1.59.2-1.79-.53-1.37-1.09a2.93,2.93,0,0,0,.95,0,16.24,16.24,0,0,1,2.92-.08l-1.06,1Z"/><path class="cls-4" d="M34.94,11.77A69.14,69.14,0,0,1,27.83,23.2h5.88a48.38,48.38,0,0,0,7.36-11.6A17.58,17.58,0,0,1,34.94,11.77Z"/><path class="cls-5" d="M41.07,11.6a49.28,49.28,0,0,1-2.48,4.79q2.1,2.79,4.17,5.9h5.56A42.36,42.36,0,0,0,41.07,11.6Z"/><path class="cls-6" d="M47.29,31.92h4.53a40.57,40.57,0,0,0-2.69-7.86H43.91A34.94,34.94,0,0,1,47.29,31.92Z"/><path class="cls-2" d="M31.65,23.22c6.79-.27,15.29,2.12,20.17,8.69H47.29c-4.73-4.66-13.76-6.81-18.74-6.17-1.8.23-1.81-.74-1.17-1.3.92-.8,3.15-1.18,4.27-1.23Z"/><path class="cls-7" d="M40.7,24.4a27.82,27.82,0,0,0-9.05-1.18c-1.12.05-3.35.43-4.27,1.23-.64.56-.63,1.53,1.17,1.3a26.44,26.44,0,0,1,12.15,2Z"/><path class="cls-8" d="M50.53,14.94a22.89,22.89,0,0,0-2.6-2.52,2.89,2.89,0,0,0-1.46-.68h-.15a1.43,1.43,0,0,0-1.26,1,1.64,1.64,0,0,0,.14,1.5c.36.68.83,1.32,1.23,2,1.22,2,2.36,4,3.37,6.11h6.05A35.25,35.25,0,0,0,50.53,14.94Z"/><path class="cls-9" d="M57.31,25.3A41.68,41.68,0,0,1,59.45,32a95.93,95.93,0,0,1,7.3-10.69V17H64.89A48.48,48.48,0,0,0,57.31,25.3Z"/><path class="cls-10" d="M68.88,16.94h1.5c2.91-3.36,6-6.58,9-9.83a89,89,0,0,0-10.54,6.68Z"/></svg>